<svg id="Layer_4" data-name="Layer 4" xmlns="http://www.w3.org/2000/svg" viewBox="0 0 1024 272"><defs><style>.cls-1{fill:#fff;}</style></defs><rect x="2" y="-1" width="1022" height="273"/><path class="cls-1" d="M259.68,113.58c-.48.45-2.43,2.23-5.69,4.8a1.23,1.23,0,0,0-.13-.29A72.54,72.54,0,0,0,259.68,113.58Z"/><path class="cls-1" d="M259.68,113.58c-.48.45-2.43,2.23-5.69,4.8a1.23,1.23,0,0,0-.13-.29A72.54,72.54,0,0,0,259.68,113.58Z"/><path class="cls-1" d="M136.5,153.7l-.35.17a2.35,2.35,0,0,1-.11-.93C136.19,153.2,136.34,153.45,136.5,153.7Z"/><path class="cls-1" d="M291.23,68.33q-3.53,0-7,.33a85.28,85.28,0,0,0-152,4.87,91.33,91.33,0,1,0,116.3,130.82,74.71,74.71,0,1,0,42.68-136ZM261.85,164.5l-.57.63c-5.33,5.77-16.66,14.66-31.73,20.06-21.58,7.75-50.81,8.32-81-17.73l-1.22.56a60.55,60.55,0,0,0-18.68,14c-3.14-1.13-11.08-2.82-11.08-2.82a107.62,107.62,0,0,1,23.23-19c6.64-3.87,13.22-6.29,19.11-6.43a150.77,150.77,0,0,0,56.6-13A172.92,172.92,0,0,0,254,118.38a1.23,1.23,0,0,0-.13-.29,152.21,152.21,0,0,1-37.08,18.81,198.35,198.35,0,0,1-58.69,11c-9.48.38-19.6,4.89-21.59,5.82l-.35.17a2.35,2.35,0,0,1-.11-.93c-.14-8.78,8.4-76.2,91.65-68.17q6.84.65,14.38,2,6.69,1.21,13.94,3c15.65,4,34.9.52,34.9.52S291.85,131.46,261.85,164.5Z"/><path class="cls-1" d="M136.5,153.7l-.35.17a2.35,2.35,0,0,1-.11-.93C136.19,153.2,136.34,153.45,136.5,153.7Z"/><path class="cls-1" d="M456.68,116.51a20.41,20.41,0,0,0-6.3-8.26,34.58,34.58,0,0,0-10.57-5.39A112.77,112.77,0,0,0,425,99.22,82.31,82.31,0,0,1,414,96.35,16.58,16.58,0,0,1,406.91,92a10,10,0,0,1-2.45-6.93,9.66,9.66,0,0,1,2.1-6.16,13.94,13.94,0,0,1,6.23-4.2,30.32,30.32,0,0,1,18-.35,53.25,53.25,0,0,1,8,2.94,25.21,25.21,0,0,1,6,3.71,6.14,6.14,0,0,0,3.78,1.26,7.46,7.46,0,0,0,5.6-2.52,8,8,0,0,0,2.38-5.6q0-4.2-4.06-7.42a39.32,39.32,0,0,0-12.67-6.93,50.54,50.54,0,0,0-16.87-2.73,45,45,0,0,0-17.64,3.36,29.42,29.42,0,0,0-12.67,9.8,25.64,25.64,0,0,0-4.69,15.54,28.57,28.57,0,0,0,2,10.85,23.25,23.25,0,0,0,5.81,8.4,30.89,30.89,0,0,0,9.59,5.88,59,59,0,0,0,13.3,3.43,59.58,59.58,0,0,1,13.16,3.15,19.13,19.13,0,0,1,7.7,5A10.6,10.6,0,0,1,442,129.6a8.71,8.71,0,0,1-2.66,6.23,18.6,18.6,0,0,1-7,4.34,27.25,27.25,0,0,1-9.52,1.61,33.11,33.11,0,0,1-12.95-2.24A44.59,44.59,0,0,1,399.28,133a7.42,7.42,0,0,0-4.76-1.68,7.66,7.66,0,0,0-5.81,2.45,8,8,0,0,0-2.31,5.67,8.74,8.74,0,0,0,1,3.92,11,11,0,0,0,2.8,3.5,42.13,42.13,0,0,0,15,8.61,59.17,59.17,0,0,0,17.64,2.45,44.64,44.64,0,0,0,17.71-3.5,32.21,32.21,0,0,0,13.23-10.08,25,25,0,0,0,5-15.68A31.09,31.09,0,0,0,456.68,116.51Z"/><path class="cls-1" d="M489.3,55.33a8.62,8.62,0,0,0-12,0,8.37,8.37,0,0,0-2.38,6.09v86.52a8.37,8.37,0,0,0,2.38,6.09,8.62,8.62,0,0,0,12,0,8.37,8.37,0,0,0,2.38-6.09V61.42A8.37,8.37,0,0,0,489.3,55.33Zm44.1,28.91a7.31,7.31,0,0,0-5.6-2.66,8.47,8.47,0,0,0-6.16,2.66l-30,28.91-2.1,2,.7,19.32,1.4-1.29,6.89-6.34,12.75-11.73,21.1-19.42q3.36-2.94,3.36-6.3A7.94,7.94,0,0,0,533.4,84.24Zm2.38,57.54-24.46-26.64-.74-.8L497.84,126.1l.73.77,25.17,26.67a8,8,0,0,0,6.16,2.8,9.09,9.09,0,0,0,5.67-2.31,7.3,7.3,0,0,0,2.87-5.95A9,9,0,0,0,535.78,141.78Z"/><path class="cls-1" d="M614.74,84a8.62,8.62,0,0,0-12,0,8.37,8.37,0,0,0-2.38,6.09V126a20.38,20.38,0,0,1-1.82,9,12.64,12.64,0,0,1-5.18,5.6,16.65,16.65,0,0,1-8.26,1.89q-7.14,0-11.13-3.71t-4-12.81V90.12A8.41,8.41,0,0,0,567.56,84a8.62,8.62,0,0,0-12,0,8.37,8.37,0,0,0-2.38,6.09V131a30.35,30.35,0,0,0,3.08,13.93,23.3,23.3,0,0,0,8.61,9.52,24,24,0,0,0,12.95,3.43,37.26,37.26,0,0,0,11.2-1.54,24.3,24.3,0,0,0,8.47-4.55,21.56,21.56,0,0,0,3-3.1v1.49q0,7.14-2.17,11.27a12.44,12.44,0,0,1-6.44,5.88,28.36,28.36,0,0,1-10.71,1.75,22.26,22.26,0,0,1-8.4-1.47q-3.65-1.47-5.88-2.17a7,7,0,0,0-5.88.35q-2.81,1.47-4.06,5.53a6.82,6.82,0,0,0,.63,5.81,11.91,11.91,0,0,0,5.81,4.55,32.29,32.29,0,0,0,8.26,2.1,68.79,68.79,0,0,0,9.52.7,47.22,47.22,0,0,0,18.2-3.36,27.46,27.46,0,0,0,12.95-11q4.83-7.63,4.83-20.51V90.12A8.41,8.41,0,0,0,614.74,84Z"/><path class="cls-1" d="M704,98.8a35.25,35.25,0,0,0-12.31-13.65,32,32,0,0,0-17.58-5,25.86,25.86,0,0,0-9.3,1.68A30.26,30.26,0,0,0,657,86.13a29,29,0,0,0-4.89,4.64V61.42a8.38,8.38,0,0,0-2.39-6.09,8.61,8.61,0,0,0-12,0,8.38,8.38,0,0,0-2.39,6.09v87.92a8.33,8.33,0,0,0,2.39,6.16,8.13,8.13,0,0,0,6,2.38,8,8,0,0,0,6-2.45,8.38,8.38,0,0,0,2.39-6.09v-.86a31.58,31.58,0,0,0,3.43,3,33.31,33.31,0,0,0,8.61,4.62,29.94,29.94,0,0,0,10.5,1.82,30.73,30.73,0,0,0,17.14-5A35.5,35.5,0,0,0,704,139.19,43.15,43.15,0,0,0,708.54,119,42.75,42.75,0,0,0,704,98.8Zm-14.14,32.13a20.86,20.86,0,0,1-7.13,8.47A18.7,18.7,0,0,1,672,142.48a19,19,0,0,1-10.78-3.08,20.65,20.65,0,0,1-7.21-8.47,27.21,27.21,0,0,1-2.59-12A26.66,26.66,0,0,1,654,107a20.83,20.83,0,0,1,7.21-8.33A19,19,0,0,1,672,95.58a18.7,18.7,0,0,1,10.71,3.08,21,21,0,0,1,7.13,8.33,26.66,26.66,0,0,1,2.59,12A27.21,27.21,0,0,1,689.84,130.93Z"/><path class="cls-1" d="M789.17,82.56a8.71,8.71,0,0,0-12,.07,8.41,8.41,0,0,0-2.38,6.09v.18q-1.23-1.14-2.73-2.28A32.81,32.81,0,0,0,763.27,82a32.4,32.4,0,0,0-11.06-1.82,30.89,30.89,0,0,0-17.08,5,35.43,35.43,0,0,0-12.25,13.72,43.27,43.27,0,0,0-4.55,20.23,43,43,0,0,0,4.55,20.09,35.06,35.06,0,0,0,12.39,13.72,32,32,0,0,0,17.5,5,27.17,27.17,0,0,0,9.87-1.75,32.6,32.6,0,0,0,7.91-4.27,29.88,29.88,0,0,0,4.21-3.76,8.37,8.37,0,0,0,2.37,5.93,8.62,8.62,0,0,0,12,0,8.37,8.37,0,0,0,2.38-6.09V88.72A8.33,8.33,0,0,0,789.17,82.56ZM772.86,131a20.7,20.7,0,0,1-7.21,8.4,19,19,0,0,1-10.78,3.08,18.77,18.77,0,0,1-10.64-3.08A20.78,20.78,0,0,1,737,131a26.92,26.92,0,0,1-2.59-11.9,27.26,27.26,0,0,1,2.59-12,20.78,20.78,0,0,1,7.21-8.4,18.77,18.77,0,0,1,10.64-3.08,19,19,0,0,1,10.78,3.08,20.7,20.7,0,0,1,7.21,8.4,27.12,27.12,0,0,1,2.59,12A26.78,26.78,0,0,1,772.86,131Z"/><path class="cls-1" d="M861,125.33a19.19,19.19,0,0,0-5.88-6.51,34.06,34.06,0,0,0-8-4.06c-2.89-1-5.74-1.91-8.54-2.66s-5.25-1.52-7.63-2.31a15.84,15.84,0,0,1-5.67-3.08,6.53,6.53,0,0,1-2.1-5.11c0-2.33.61-4,1.82-5.11a9,9,0,0,1,4.27-2.1,23,23,0,0,1,4.55-.49A21.94,21.94,0,0,1,843,95.72a16.56,16.56,0,0,1,6.37,4.9,7.39,7.39,0,0,0,4.62,1.89,6.75,6.75,0,0,0,4.9-1.47q2.94-2.39,2.66-5.32a9.94,9.94,0,0,0-1.82-5,22.52,22.52,0,0,0-7.28-6.09,35.61,35.61,0,0,0-9.1-3.36,42.26,42.26,0,0,0-9.1-1,33.05,33.05,0,0,0-13.09,2.66A25.54,25.54,0,0,0,811,90.4a18.47,18.47,0,0,0-3.92,11.9,19.92,19.92,0,0,0,2.38,10.22,19.15,19.15,0,0,0,6.16,6.51,37.48,37.48,0,0,0,8.33,4c3,1,6,2,8.89,2.8s5.34,1.54,7.63,2.38a17.71,17.71,0,0,1,5.53,3.08,6.15,6.15,0,0,1,2.1,4.9c0,2.43-.63,4.22-1.89,5.39a8.86,8.86,0,0,1-4.41,2.24,36.19,36.19,0,0,1-4.62.63A25,25,0,0,1,826,142.2a32.88,32.88,0,0,1-8.54-6.3,7.93,7.93,0,0,0-4.9-2.59,7.6,7.6,0,0,0-4.76,1.19c-2.33,1.49-3.55,3.27-3.64,5.32a7.88,7.88,0,0,0,1.26,5A28.58,28.58,0,0,0,819.13,155a50.14,50.14,0,0,0,16.52,2.87,33.51,33.51,0,0,0,12.88-2.59,26.62,26.62,0,0,0,10.5-7.63,18.4,18.4,0,0,0,4.2-12.18A20.58,20.58,0,0,0,861,125.33Z"/><path class="cls-1" d="M941.56,103a39,39,0,0,0-7.77-11.83,36.87,36.87,0,0,0-11.27-8A31.87,31.87,0,0,0,909,80.18a34.55,34.55,0,0,0-17.5,4.76,36.09,36.09,0,0,0-13.37,13.65Q873,107.48,873,120.08a39.41,39.41,0,0,0,4.69,19.32,34.37,34.37,0,0,0,13.44,13.51q8.75,5,20.65,5a40.71,40.71,0,0,0,13.58-2.31,32.54,32.54,0,0,0,10.22-5.39q3.92-3.08,3.92-6.86a7.05,7.05,0,0,0-7.14-7,10.69,10.69,0,0,0-4.76,1.26c-1,.56-2.17,1.24-3.43,2a18.72,18.72,0,0,1-5,2,32.54,32.54,0,0,1-8.26.84,21.72,21.72,0,0,1-21.3-17.64h46.22a8.91,8.91,0,0,0,5.88-2.1,7.18,7.18,0,0,0,2.66-5.46A36,36,0,0,0,941.56,103Zm-15,7.84H889.83a23.22,23.22,0,0,1,.84-3.22,18.37,18.37,0,0,1,4.2-7.14,15,15,0,0,1,6.3-3.78A26.44,26.44,0,0,1,909,95.58a18.36,18.36,0,0,1,8.19,1.89,18.7,18.7,0,0,1,6.44,5.11,12.77,12.77,0,0,1,2.87,7.28Z"/><path class="cls-1" d="M641,169.57a4.52,4.52,0,0,0-2.7-.6,4.7,4.7,0,0,0-2.63.58,2.44,2.44,0,0,0-.86,2.18v1.05a2.6,2.6,0,0,0,.78,2.16,4.41,4.41,0,0,0,2.65.61A4.81,4.81,0,0,0,641,175a2.49,2.49,0,0,0,.83-2.18v-1.05A2.6,2.6,0,0,0,641,169.57Zm-.33,10.54a3.39,3.39,0,0,0-4.75,0,3.28,3.28,0,0,0-.94,2.4v22.84a3.28,3.28,0,0,0,.94,2.4,3.39,3.39,0,0,0,4.75,0,3.28,3.28,0,0,0,.94-2.4V182.51A3.28,3.28,0,0,0,640.7,180.11Z"/><path class="cls-1" d="M673.41,184.86a8.78,8.78,0,0,0-2.93-4.56c-1.42-1.14-3.5-1.71-6.22-1.71a10.1,10.1,0,0,0-3.49.58,10.76,10.76,0,0,0-2.87,1.52,13.08,13.08,0,0,0-2.21,2,8,8,0,0,0-.61.75v-1a3.32,3.32,0,0,0-.94-2.4,3.4,3.4,0,0,0-4.76,0,3.32,3.32,0,0,0-.94,2.4v22.84a3.32,3.32,0,0,0,.94,2.4,3.4,3.4,0,0,0,4.76,0,3.32,3.32,0,0,0,.94-2.4V191.19a6.71,6.71,0,0,1,.8-3.29,6.09,6.09,0,0,1,2.32-2.35,7.33,7.33,0,0,1,3.73-.88,5.88,5.88,0,0,1,3.49.88,4.55,4.55,0,0,1,1.68,2.35,10.59,10.59,0,0,1,.47,3.29v14.16a3.32,3.32,0,0,0,.94,2.4,3.4,3.4,0,0,0,4.76,0,3.32,3.32,0,0,0,.94-2.4V191.19A23.53,23.53,0,0,0,673.41,184.86Z"/><path class="cls-1" d="M706.36,184.86a8.72,8.72,0,0,0-2.93-4.56q-2.13-1.71-6.22-1.71a10,10,0,0,0-3.48.58,11,11,0,0,0-2.88,1.52,13.08,13.08,0,0,0-2.21,2,8,8,0,0,0-.61.75v-1a3.28,3.28,0,0,0-.94-2.4,3.17,3.17,0,0,0-2.38-1,3.13,3.13,0,0,0-2.37,1,3.28,3.28,0,0,0-.94,2.4v22.84a3.28,3.28,0,0,0,.94,2.4,3.13,3.13,0,0,0,2.37,1,3.17,3.17,0,0,0,2.38-1,3.28,3.28,0,0,0,.94-2.4V191.19a6.82,6.82,0,0,1,.8-3.29,6.16,6.16,0,0,1,2.32-2.35,7.34,7.34,0,0,1,3.74-.88,5.85,5.85,0,0,1,3.48.88,4.62,4.62,0,0,1,1.69,2.35,10.89,10.89,0,0,1,.47,3.29v14.16a3.28,3.28,0,0,0,.94,2.4,3.39,3.39,0,0,0,4.75,0,3.28,3.28,0,0,0,.94-2.4V191.19A23.53,23.53,0,0,0,706.36,184.86Z"/><path class="cls-1" d="M740.75,186a14.68,14.68,0,0,0-5.42-5.42,15.71,15.71,0,0,0-15.2,0,14.61,14.61,0,0,0-5.42,5.42,16.81,16.81,0,0,0,0,16,14.45,14.45,0,0,0,5.42,5.39,15.93,15.93,0,0,0,15.2,0,14.52,14.52,0,0,0,5.42-5.39,16.81,16.81,0,0,0,0-16ZM735,198.79a8.41,8.41,0,0,1-3,3.24,8.29,8.29,0,0,1-8.46,0,8.34,8.34,0,0,1-3-3.24,9.85,9.85,0,0,1-1.14-4.83,10.05,10.05,0,0,1,1.14-4.9,8.38,8.38,0,0,1,3-3.23,8.29,8.29,0,0,1,8.46,0,8.45,8.45,0,0,1,3,3.23,10.16,10.16,0,0,1,1.13,4.9A10,10,0,0,1,735,198.79Z"/><path class="cls-1" d="M773,180.05a3,3,0,0,0-2.24-.86,2.92,2.92,0,0,0-2.93,2.11l-7.56,17.4-7.64-17.46a3.31,3.31,0,0,0-1.33-1.58,3.7,3.7,0,0,0-1.93-.52,3,3,0,0,0-2.38,1,2.9,2.9,0,0,0-.88,2,3.58,3.58,0,0,0,.13,1.05c.09.3.18.53.25.72l10.29,22.78a3.49,3.49,0,0,0,1.46,1.71,3,3,0,0,0,2,.39,3.16,3.16,0,0,0,2.82-2.1l10.34-22.78a8,8,0,0,0,.3-.83,2.91,2.91,0,0,0-.72-3Z"/><path class="cls-1" d="M805.3,179.53a3.22,3.22,0,0,0-2.38-.94,3.16,3.16,0,0,0-2.37,1,3.32,3.32,0,0,0-.94,2.41V182a12.86,12.86,0,0,0-1.08-.9,12.87,12.87,0,0,0-7.83-2.54,12.15,12.15,0,0,0-6.74,2,13.93,13.93,0,0,0-4.84,5.42,18.5,18.5,0,0,0,0,15.92,13.89,13.89,0,0,0,4.89,5.42,12.65,12.65,0,0,0,6.92,2,10.71,10.71,0,0,0,3.89-.69,12.14,12.14,0,0,0,4.79-3.17,3.25,3.25,0,0,0,.94,2.34,3.13,3.13,0,0,0,2.37,1,3.17,3.17,0,0,0,2.38-1,3.28,3.28,0,0,0,.94-2.4V182A3.25,3.25,0,0,0,805.3,179.53Zm-6.44,19.13A8.15,8.15,0,0,1,796,202a7.94,7.94,0,0,1-8.46,0,8.21,8.21,0,0,1-2.84-3.31,10.5,10.5,0,0,1-1-4.7,10.63,10.63,0,0,1,1-4.76,8.3,8.3,0,0,1,2.84-3.32,8,8,0,0,1,8.46,0,8.25,8.25,0,0,1,2.85,3.32,10.77,10.77,0,0,1,1,4.76A10.63,10.63,0,0,1,798.86,198.66Z"/><path class="cls-1" d="M829.07,180.58a3,3,0,0,0-2.21-.89h-13.1a3,3,0,0,0-2.21.86,2.85,2.85,0,0,0-.89,2.13,3,3,0,0,0,3.1,3.09h13.1a3,3,0,0,0,2.21-.85,2.85,2.85,0,0,0,.89-2.13A3,3,0,0,0,829.07,180.58Zm0,22.61a1.85,1.85,0,0,0-1.41-.72,3,3,0,0,0-1.27.25,3.06,3.06,0,0,1-2.35,0,1.76,1.76,0,0,1-.83-.72,2.44,2.44,0,0,1-.3-1.27V176.15a3.36,3.36,0,0,0-.92-2.4,3,3,0,0,0-2.34-1,3.31,3.31,0,0,0-3.38,3.37V201a9.13,9.13,0,0,0,.83,4.26,5.78,5.78,0,0,0,2.08,2.3,7,7,0,0,0,2.65.94,18.87,18.87,0,0,0,2.57.19,6.93,6.93,0,0,0,3.62-1,2.91,2.91,0,0,0,1.69-2.54A2.87,2.87,0,0,0,829.1,203.19Z"/><path class="cls-1" d="M841.68,169.57A4.57,4.57,0,0,0,839,169a4.75,4.75,0,0,0-2.63.58,2.44,2.44,0,0,0-.85,2.18v1.05a2.63,2.63,0,0,0,.77,2.16,4.45,4.45,0,0,0,2.66.61,4.78,4.78,0,0,0,2.7-.59,2.46,2.46,0,0,0,.83-2.18v-1.05A2.6,2.6,0,0,0,841.68,169.57Zm-.33,10.54a3.4,3.4,0,0,0-4.76,0,3.32,3.32,0,0,0-.94,2.4v22.84a3.32,3.32,0,0,0,.94,2.4,3.4,3.4,0,0,0,4.76,0,3.32,3.32,0,0,0,.94-2.4V182.51A3.32,3.32,0,0,0,841.35,180.11Z"/><path class="cls-1" d="M875.49,186a14.68,14.68,0,0,0-5.42-5.42,15.71,15.71,0,0,0-15.2,0,14.61,14.61,0,0,0-5.42,5.42,16.81,16.81,0,0,0,0,16,14.45,14.45,0,0,0,5.42,5.39,15.93,15.93,0,0,0,15.2,0,14.52,14.52,0,0,0,5.42-5.39,16.81,16.81,0,0,0,0-16Zm-5.75,12.82a8.41,8.41,0,0,1-3,3.24,8.29,8.29,0,0,1-8.46,0,8.34,8.34,0,0,1-3-3.24,9.85,9.85,0,0,1-1.13-4.83,10,10,0,0,1,1.13-4.9,8.38,8.38,0,0,1,3-3.23,8.29,8.29,0,0,1,8.46,0,8.45,8.45,0,0,1,3,3.23,10,10,0,0,1,1.13,4.9A9.85,9.85,0,0,1,869.74,198.79Z"/><path class="cls-1" d="M908,184.86a8.66,8.66,0,0,0-2.93-4.56q-2.13-1.71-6.22-1.71a10,10,0,0,0-3.48.58,11,11,0,0,0-2.88,1.52,13.48,13.48,0,0,0-2.21,2,8,8,0,0,0-.61.75v-1a3.28,3.28,0,0,0-.94-2.4,3.17,3.17,0,0,0-2.38-1,3.13,3.13,0,0,0-2.37,1,3.28,3.28,0,0,0-.94,2.4v22.84a3.28,3.28,0,0,0,.94,2.4,3.13,3.13,0,0,0,2.37,1,3.17,3.17,0,0,0,2.38-1,3.28,3.28,0,0,0,.94-2.4V191.19a6.82,6.82,0,0,1,.8-3.29,6.11,6.11,0,0,1,2.33-2.35,7.28,7.28,0,0,1,3.73-.88,5.85,5.85,0,0,1,3.48.88,4.62,4.62,0,0,1,1.69,2.35,10.89,10.89,0,0,1,.47,3.29v14.16a3.28,3.28,0,0,0,.94,2.4,3.39,3.39,0,0,0,4.75,0,3.28,3.28,0,0,0,.94-2.4V191.19A23.53,23.53,0,0,0,908,184.86Z"/><path class="cls-1" d="M936.23,196.42a7.58,7.58,0,0,0-2.33-2.57,13.37,13.37,0,0,0-3.15-1.61c-1.14-.4-2.26-.75-3.37-1.05s-2.07-.6-3-.91a6.17,6.17,0,0,1-2.24-1.22,3,3,0,0,1-.11-4,3.46,3.46,0,0,1,1.68-.83,9.25,9.25,0,0,1,1.8-.2,8.63,8.63,0,0,1,3.62.72,6.6,6.6,0,0,1,2.52,1.94,2.88,2.88,0,0,0,1.82.74,2.63,2.63,0,0,0,1.94-.58,2.38,2.38,0,0,0,1.05-2.1,4.08,4.08,0,0,0-.72-2,9,9,0,0,0-2.88-2.4,14.12,14.12,0,0,0-3.59-1.33,16.41,16.41,0,0,0-3.59-.41,13,13,0,0,0-5.17,1,10,10,0,0,0-4,3,7.31,7.31,0,0,0-1.55,4.7,7.87,7.87,0,0,0,.94,4,7.68,7.68,0,0,0,2.43,2.57,15.16,15.16,0,0,0,3.29,1.58c1.2.4,2.37.77,3.51,1.1s2.11.61,3,.94a6.92,6.92,0,0,1,2.18,1.22,2.43,2.43,0,0,1,.83,1.93,2.76,2.76,0,0,1-.75,2.13,3.54,3.54,0,0,1-1.74.89,13.24,13.24,0,0,1-1.82.24,9.88,9.88,0,0,1-4.43-.88,13,13,0,0,1-3.37-2.49,3.14,3.14,0,0,0-1.94-1,2.92,2.92,0,0,0-1.87.47,2.64,2.64,0,0,0-1.44,2.1,3.07,3.07,0,0,0,.5,2,11.27,11.27,0,0,0,5.41,4,19.94,19.94,0,0,0,6.53,1.13,13.24,13.24,0,0,0,5.08-1,10.5,10.5,0,0,0,4.15-3,7.25,7.25,0,0,0,1.66-4.81A8.21,8.21,0,0,0,936.23,196.42Z"/></svg>